<?xml version="1.0" encoding="UTF-8"?>
<svg id="Outline" xmlns="http://www.w3.org/2000/svg" version="1.1" viewBox="0 0 48 48">
  <!-- Generator: Adobe Illustrator 29.0.0, SVG Export Plug-In . SVG Version: 2.1.0 Build 186)  -->
  <path d="M42,40.99377h-3v-5c0-.54999-.45001-1-1-1s-1,.45001-1,1v1h-4v-6h4v1c0,.54999.45001,1,1,1s1-.45001,1-1v-4.35004c.32001.11005.65997.17999,1,.17999.76996,0,1.53992-.29999,2.11993-.87988,1.12848-1.1283,1.13702-3.12317.00006-4.24011L24.71002,5.28375c-.38-.37-1.04004-.37-1.42004,0l-7.28998,7.29999v-4.58997c0-.54999-.45001-1-1-1h-4c-.54999,0-1,.45001-1,1v10.58997s-4.11212,4.11212-4.12,4.11993c-1.14856,1.14862-1.14178,3.09827,0,4.24011.83997.83997,2.06,1.06995,3.12.69995v13.35004h-3c-.54999,0-1,.45001-1,1s.45001,1,1,1h36c.54999,0,1-.45001,1-1s-.45001-1-1-1ZM12,8.99377h2v5.58997l-2,2v-7.58997ZM8.71002,25.53375c-.38995.38989-1.02979.38995-1.41986.00018-.38153-.38135-.37964-1.04077-.00018-1.42017L24,7.40375s16.63983,16.63977,16.70978,16.70978c.3656.36554.38525,1.03522.00024,1.42023-.39001.39001-1.03003.39001-1.42004,0l-14.57996-14.58997c-.20001-.20001-.45001-.29004-.71002-.29004s-.51001.09003-.71002.29004l-14.57996,14.58997ZM11,30.99377h4v6h-4v-6ZM27,40.99377h-6v-8h6v8ZM37,40.99377h-8v-9c0-.54999-.45001-1-1-1h-8c-.54999,0-1,.45001-1,1v9h-8v-2h5c.54999,0,1-.45001,1-1v-8c0-.54999-.45001-1-1-1h-5v-2.92999l13-13,13,13v2.92999h-5c-.54999,0-1,.45001-1,1v8c0,.54999.45001,1,1,1h5v2Z"/>
  <path d="M24,17.99377c-2.75684,0-5,2.24316-5,5s2.24316,5,5,5,5-2.24316,5-5-2.24316-5-5-5ZM23,25.80945c-.84717-.30206-1.51361-.96851-1.81567-1.81567h1.81567v1.81567ZM23,21.99377h-1.81573c.30206-.84717.96857-1.51367,1.81573-1.81573v1.81573ZM25,25.80951v-1.81573h1.81573c-.30206.84717-.96857,1.51367-1.81573,1.81573ZM25,21.99377v-1.81573c.84717.30206,1.51367.96857,1.81573,1.81573h-1.81573Z"/>
</svg>