<?xml version="1.0" encoding="UTF-8"?>
<svg xmlns="http://www.w3.org/2000/svg" version="1.1" viewBox="0 0 64 64">
  <defs>
    <style>
      .cls-1 {
        fill: none;
        stroke: #231f20;
        stroke-linecap: round;
        stroke-linejoin: round;
        stroke-width: 2px;
      }
    </style>
  </defs>
  <!-- Generator: Adobe Illustrator 28.7.3, SVG Export Plug-In . SVG Version: 1.2.0 Build 164)  -->
  <g>
    <g id="Layer_1">
      <g>
        <path class="cls-1" d="M32,39.9l17.54-15.67c4.3-3.84,5.34-10.17,2.49-15.18h0c-3.61-6.35-11.93-8.15-17.84-3.86l-2.18,1.58-2.18-1.58c-5.91-4.29-14.24-2.49-17.84,3.86h0c-2.85,5.02-1.81,11.34,2.49,15.18l17.54,15.67Z"/>
        <polyline class="cls-1" points="17.67 18.4 20.18 18.4 21.66 14.91 25.92 23.53 28.25 18.4 32 18.4 34.21 13.97 37.69 23.53 40.63 18.4 46.33 18.4"/>
        <path class="cls-1" d="M21.1,30.15v2.37c0,3.85-3.12,6.97-6.97,6.97h-2.46c-3.85,0-6.97,3.12-6.97,6.98,0,1.92.78,3.66,2.03,4.92,1.26,1.26,3,2.05,4.93,2.05h2.33"/>
        <path class="cls-1" d="M15.86,49.89h2.3v7.1h-2.3c-1.03,0-1.86-.83-1.86-1.86v-3.38c0-1.03.83-1.86,1.86-1.86Z"/>
        <rect class="cls-1" x="18.16" y="45.73" width="6.7" height="15.42" rx="2.23" ry="2.23"/>
        <path class="cls-1" d="M42.9,30.15v2.37c0,3.85,3.12,6.97,6.97,6.97h2.46c3.85,0,6.97,3.12,6.97,6.98,0,1.92-.78,3.66-2.03,4.92-1.26,1.26-3,2.05-4.93,2.05h-2.33"/>
        <path class="cls-1" d="M47.7,49.89h2.3v7.1h-2.3c-1.03,0-1.86-.83-1.86-1.86v-3.38c0-1.03.83-1.86,1.86-1.86Z" transform="translate(95.84 106.88) rotate(-180)"/>
        <rect class="cls-1" x="39.14" y="45.73" width="6.7" height="15.42" rx="2.23" ry="2.23" transform="translate(84.98 106.88) rotate(-180)"/>
      </g>
    </g>
  </g>
</svg>