<?xml version="1.0" encoding="UTF-8"?>
<svg id="Outline" xmlns="http://www.w3.org/2000/svg" version="1.1" viewBox="0 0 64 64">
  <!-- Generator: Adobe Illustrator 29.0.0, SVG Export Plug-In . SVG Version: 2.1.0 Build 186)  -->
  <path d="M23.44531,34.16797l-2.31787,1.54541-.42041-.42041c-.39062-.39062-1.02344-.39062-1.41406,0s-.39062,1.02344,0,1.41406l1,1c.19336.19336.44922.29297.70752.29297.19189,0,.38525-.05518.5542-.16797l3-2c.45947-.30615.5835-.92725.27734-1.38672-.30713-.45996-.92725-.58447-1.38672-.27734Z"/>
  <path d="M17,41h6.33984c.55225,0,1-.44775,1-1s-.44775-1-1-1h-5.33984v-6h2c.55225,0,1-.44775,1-1s-.44775-1-1-1h-3c-.55225,0-1,.44775-1,1v8c0,.55225.44775,1,1,1Z"/>
  <path d="M23.44531,46.16797l-2.31787,1.54541-.42041-.42041c-.39062-.39062-1.02344-.39062-1.41406,0s-.39062,1.02344,0,1.41406l1,1c.19336.19336.44922.29297.70752.29297.19189,0,.38525-.05518.5542-.16797l3-2c.45947-.30615.5835-.92725.27734-1.38672-.30713-.45947-.92725-.58447-1.38672-.27734Z"/>
  <path d="M23.33984,51h-5.33984v-6h2c.55225,0,1-.44775,1-1s-.44775-1-1-1h-3c-.55225,0-1,.44775-1,1v8c0,.55225.44775,1,1,1h6.33984c.55225,0,1-.44775,1-1s-.44775-1-1-1Z"/>
  <path d="M29,33h8c.55225,0,1-.44775,1-1s-.44775-1-1-1h-8c-.55225,0-1,.44775-1,1s.44775,1,1,1Z"/>
  <path d="M41,35h-12c-.55225,0-1,.44775-1,1s.44775,1,1,1h12c.55225,0,1-.44775,1-1s-.44775-1-1-1Z"/>
  <path d="M41,39h-12c-.55225,0-1,.44775-1,1s.44775,1,1,1h12c.55225,0,1-.44775,1-1s-.44775-1-1-1Z"/>
  <path d="M29,45h8c.55225,0,1-.44775,1-1s-.44775-1-1-1h-8c-.55225,0-1,.44775-1,1s.44775,1,1,1Z"/>
  <path d="M41,47h-12c-.55225,0-1,.44775-1,1s.44775,1,1,1h12c.55225,0,1-.44775,1-1s-.44775-1-1-1Z"/>
  <path d="M41,51h-12c-.55225,0-1,.44775-1,1s.44775,1,1,1h12c.55225,0,1-.44775,1-1s-.44775-1-1-1Z"/>
  <path d="M57,18c0-6.06543-4.93457-11-11-11-1.41962,0-2.77283.27942-4.01984.7713-.54272-.4812-1.24286-.7713-1.98016-.7713H10c-1.6543,0-3,1.3457-3,3v40c0,1.6543,1.3457,3,3,3h1v1c0,1.6543,1.3457,3,3,3h30c1.6543,0,3-1.3457,3-3v-25.05066c5.5979-.50751,10-5.22144,10-10.94934ZM52.36377,22.94971c-.39062-.39062-1.02344-.39062-1.41406,0s-.39062,1.02344,0,1.41406l.66119.66119c-1.29462,1.03613-2.87823,1.72339-4.6109,1.91602v-.94098c0-.55225-.44775-1-1-1s-1,.44775-1,1v.94098c-1.73267-.19263-3.31628-.87988-4.6109-1.91602l.66119-.66119c.39062-.39062.39062-1.02344,0-1.41406s-1.02344-.39062-1.41406,0l-.66119.66119c-1.03613-1.29462-1.72339-2.87823-1.91602-4.6109h.94098c.55225,0,1-.44775,1-1s-.44775-1-1-1h-.94098c.19263-1.73267.87988-3.31628,1.91602-4.6109l.66119.66119c.36983.36983,1.0245.38956,1.41406,0,.39062-.39062.39062-1.02344,0-1.41406l-.66119-.66119c1.29462-1.03613,2.87823-1.72339,4.6109-1.91602v.94098c0,.55225.44775,1,1,1s1-.44775,1-1v-.94098c1.73267.19263,3.31628.87988,4.6109,1.91602l-.66119.66119c-.39057.39057-.39062,1.02327-.00016,1.4139.38387.38404,1.03229.38208,1.41422.00016l.66119-.66119c1.03613,1.29462,1.72339,2.87823,1.91602,4.6109h-.94098c-.55225,0-1,.44775-1,1s.44775,1,1,1h.94098c-.19263,1.73267-.87988,3.31628-1.91602,4.6109l-.66119-.66119ZM44,55H14c-.55127,0-1-.44873-1-1v-20c0-.55225-.44775-1-1-1s-1,.44775-1,1v17h-1c-.55127,0-1-.44873-1-1V10c0-.55127.44873-1,1-1h29.69525c-.80981.56909-1.54419,1.23871-2.17383,2h-18.52142c-.26514,0-.51953.10547-.70703.29297l-7,7c-.1875.1875-.29297.44189-.29297.70703v11c0,.55225.44775,1,1,1s1-.44775,1-1v-10h6c.55225,0,1-.44775,1-1v-6h16.21429c-.77075,1.50214-1.21429,3.19879-1.21429,5,0,1.41217.27698,2.75842.76398,4h-10.76398c-.55225,0-1,.44775-1,1s.44775,1,1,1h11.79242c.76868,1.17548,1.75507,2.19348,2.90283,3h-22.69525v-3h4c.55225,0,1-.44775,1-1s-.44775-1-1-1h-5c-.55225,0-1,.44775-1,1v5c0,.55225.44775,1,1,1h26c.35345,0,.64929-.19415.82715-.47101.69788.21069,1.42456.35248,2.17285.42035v25.05066c0,.55127-.44873,1-1,1ZM18,14.41406v3.58594h-3.58594l3.58594-3.58594Z"/>
  <path d="M47,15.18427v-1.18427c0-.55225-.44775-1-1-1s-1,.44775-1,1v1.18427c-.84717.30206-1.51367.96857-1.81573,1.81573h-1.18427c-.55225,0-1,.44775-1,1s.44775,1,1,1h1.18433c.41412,1.1615,1.51373,2,2.81567,2,1.6543,0,3-1.3457,3-3,0-1.30194-.8385-2.40161-2-2.81573ZM46,19c-.55127,0-1-.44873-1-1s.44873-1,1-1,1,.44873,1,1-.44873,1-1,1Z"/>
</svg>