<svg id="Outline_Expand" data-name="Outline Expand" xmlns="http://www.w3.org/2000/svg" viewBox="0 0 64 64"><title>Spa</title><path d="M12.54,19.19a19.42,19.42,0,0,0-6.33,1.6,3,3,0,0,0-1.32,4.37A19.58,19.58,0,0,0,9.3,30a19.84,19.84,0,0,0,6.25,3.26c-6.1,1.37-10.43,3.58-10.43,6.56h0l.08,6.07C5.2,54.79,17.22,62,32,62s26.8-7.21,26.8-16.08V40.64a.76.76,0,0,0-.06-.26,2.48,2.48,0,0,0,.06-.54c0-3-4.31-5.18-10.38-6.55A19.51,19.51,0,0,0,54.71,30a19.18,19.18,0,0,0,4.39-4.83,3,3,0,0,0-1.31-4.38,19.71,19.71,0,0,0-6.35-1.61,19.07,19.07,0,0,0-2.27,0,21.17,21.17,0,0,0,.91-2.42,19.58,19.58,0,0,0,.77-6.48,3,3,0,0,0-3.6-2.81,19.32,19.32,0,0,0-6.11,2.38,18.73,18.73,0,0,0-2.55,1.83,19.8,19.8,0,0,0-.88-3A20,20,0,0,0,34.34,3a3,3,0,0,0-4.57,0A19.84,19.84,0,0,0,26.4,8.66a19,19,0,0,0-.89,3.05A19.49,19.49,0,0,0,22.85,9.8a19.24,19.24,0,0,0-6.09-2.37,3,3,0,0,0-3.62,2.81,19.79,19.79,0,0,0,.78,6.5,19.15,19.15,0,0,0,.91,2.4A17.51,17.51,0,0,0,12.54,19.19ZM56.8,45.92C56.8,53.68,45.67,60,32,60S7.2,53.68,7.2,45.91l0-2.78a14.19,14.19,0,0,0,3.29,1.75l.2.08C15.89,47,24.07,48,32,48S48,47,53.22,45a1,1,0,0,0,.34-.13A14.36,14.36,0,0,0,56.8,43.1ZM11.69,43.2c0-2,7.89-4.92,20.27-4.92s20.27,2.91,20.27,4.92v0C48,44.78,41,46,32,46s-16-1.26-20.26-2.81ZM56.8,39.84c0,.81-.93,1.72-2.68,2.59-1.2-4-11.74-6.15-22.16-6.15S11,38.39,9.81,42.43c-1.76-.87-2.69-1.78-2.69-2.59h0c0-2.59,9.45-6.2,24.84-6.2S56.8,37.25,56.8,39.84ZM30.69,31.65a2.79,2.79,0,0,0,.5-.95,3,3,0,0,0,.11-1,2.78,2.78,0,0,0,.75.11h0a2.79,2.79,0,0,0,.64-.07,2.78,2.78,0,0,0,.11.95,3,3,0,0,0,.5.95H30.69ZM51.26,21.18A17.35,17.35,0,0,1,57,22.61a1,1,0,0,1,.44,1.49,17.58,17.58,0,0,1-9.84,7.37,18,18,0,0,1-5.17.77h-.13c-1-.13-2.1-.23-3.17-.32h0a16.89,16.89,0,0,1-3.81-1.17,1,1,0,0,1-.56-.64,1.06,1.06,0,0,1,.12-.85,17.81,17.81,0,0,1,9.84-7.37,18.36,18.36,0,0,1,3-.64A17.66,17.66,0,0,1,51.26,21.18Zm-13.56,2a19.83,19.83,0,0,0,1.36-7.25c0-.65,0-1.29-.09-1.93a16.76,16.76,0,0,1,3.18-2.46,17.25,17.25,0,0,1,5.49-2.14,1,1,0,0,1,.82.19,1,1,0,0,1,.4.77,17.45,17.45,0,0,1-.7,5.82,17.8,17.8,0,0,1-1.33,3.2A21.29,21.29,0,0,0,44.1,20a20.1,20.1,0,0,0-6.47,3.34ZM28.25,9.41a17.78,17.78,0,0,1,3-5.06,1,1,0,0,1,1.55,0,17.23,17.23,0,0,1,3,5,17.55,17.55,0,0,1,1.21,6.52,17.68,17.68,0,0,1-1.22,6.51,17.33,17.33,0,0,1-3,5,1,1,0,0,1-.77.36h0a1,1,0,0,1-.77-.36,17.23,17.23,0,0,1-3-5,18.08,18.08,0,0,1,0-13Zm-13.11.94a1,1,0,0,1,.4-.76,1,1,0,0,1,.83-.2,17.38,17.38,0,0,1,8.76,4.69c-.05.61-.08,1.22-.08,1.84a20,20,0,0,0,1.37,7.27,2.72,2.72,0,0,1,.11.25.27.27,0,0,1-.08-.07A20.11,20.11,0,0,0,19.9,20a19.42,19.42,0,0,0-2.73-.61,16.78,16.78,0,0,1-1.32-3.18A17.82,17.82,0,0,1,15.14,10.35Zm1.23,10.91a16.77,16.77,0,0,1,2.95.64,17.79,17.79,0,0,1,9.84,7.37,1.06,1.06,0,0,1,.12.85,1,1,0,0,1-.57.64A16.46,16.46,0,0,1,25,31.92h0c-1.12.09-2.23.2-3.32.33h0a18.1,18.1,0,0,1-5.17-.77,17.46,17.46,0,0,1-9.85-7.38A1,1,0,0,1,7,22.61a17.37,17.37,0,0,1,5.69-1.43A17.16,17.16,0,0,1,16.37,21.26Z"/></svg>