<svg id="Outline_Expand" data-name="Outline Expand" xmlns="http://www.w3.org/2000/svg" viewBox="0 0 64 64"><title>Webinar</title><path d="M59,45.24V18a7.17,7.17,0,0,0-7.16-7.16H11.13A7.17,7.17,0,0,0,4,18V45.66a4,4,0,0,0-2,3.42,5.89,5.89,0,0,0,5.79,6H56.21a5.89,5.89,0,0,0,5.79-6A4,4,0,0,0,59,45.24ZM32,13.09a1.32,1.32,0,1,1-1.32,1.32A1.32,1.32,0,0,1,32,13.09ZM6,18a5.16,5.16,0,0,1,5.16-5.16h18a3.32,3.32,0,1,0,5.82,0h17A5.16,5.16,0,0,1,57,18V45.09H53.7v-24a3,3,0,0,0-3-3h-15a1,1,0,0,0-.75.33,3.87,3.87,0,0,1-5.81,0,1,1,0,0,0-.75-.33H12.3a3,3,0,0,0-3,3v24H6ZM51.7,21.09v24H11.3v-24a1,1,0,0,1,1-1H27.94a5.87,5.87,0,0,0,8.15,0H50.7A1,1,0,0,1,51.7,21.09Zm4.51,32H7.79a3.9,3.9,0,0,1-3.79-4,2,2,0,0,1,2-2H58a2,2,0,0,1,2,2A3.9,3.9,0,0,1,56.21,53.06ZM35.57,50.45a1,1,0,0,1-1,1H29.19a1,1,0,1,1,0-2h5.38A1,1,0,0,1,35.57,50.45ZM40,22.76a9.33,9.33,0,1,0,9.33,9.33A9.34,9.34,0,0,0,40,22.76Zm0,16.66a7.26,7.26,0,0,1-4.59-1.63A3.83,3.83,0,0,1,39,35H40.9a3.83,3.83,0,0,1,3.66,2.75A7.29,7.29,0,0,1,40,39.42Zm-2.43-9.09A2.44,2.44,0,1,1,40,32.76,2.43,2.43,0,0,1,37.53,30.33Zm8.52,5.84a5.86,5.86,0,0,0-3-2.69,4.44,4.44,0,1,0-6.23,0,5.86,5.86,0,0,0-3,2.69,7.26,7.26,0,0,1-1.25-4.08,7.33,7.33,0,0,1,14.66,0A7.25,7.25,0,0,1,46.05,36.17ZM28.46,24.68a1,1,0,0,1-1,1h-12a1,1,0,0,1,0-2H27.46A1,1,0,0,1,28.46,24.68Zm0,5.25a1,1,0,0,1-1,1h-12a1,1,0,0,1,0-2H27.46A1,1,0,0,1,28.46,29.93Zm0,5.24a1,1,0,0,1-1,1h-12a1,1,0,1,1,0-2H27.46A1,1,0,0,1,28.46,35.17Zm0,5.25a1,1,0,0,1-1,1h-12a1,1,0,1,1,0-2H27.46A1,1,0,0,1,28.46,40.42Z"/></svg>